<svg width="107" height="29" viewBox="0 0 107 29" fill="none" xmlns="http://www.w3.org/2000/svg">
<path d="M89.0791 2.55082C89.5097 2.52804 89.9102 2.77862 90.0827 3.17881L92.0536 7.75064C92.457 8.68664 91.429 9.58416 90.5694 9.04632L83.679 4.73482C82.8194 4.19698 83.1523 2.86445 84.1595 2.81115L89.0791 2.55082Z" fill="white"/>
<path d="M5.56853 22.8458V20.7792H10.0976C10.7163 20.7792 11.2113 20.2872 11.2113 19.6721V17.8762C11.2113 17.2857 10.7163 16.7937 10.0976 16.7937H5.56853V14.8747H10.8896C11.4835 14.8747 11.9785 14.3827 11.9785 13.7922V11.332C11.9785 10.7416 11.4835 10.2495 10.8896 10.2495H1.11371C0.49498 10.2495 0 10.7416 0 11.332V26.3639C0 26.979 0.49498 27.471 1.11371 27.471H11.1123C11.731 27.471 12.226 26.979 12.226 26.3639V23.9283C12.226 23.3379 11.731 22.8458 11.1123 22.8458H5.56853Z" fill="#095AA5"/>
<path d="M28.2199 10.9138L24.3838 17.581L20.5724 10.9138C20.3497 10.4955 19.9042 10.2495 19.434 10.2495H15.3009C14.6822 10.2495 14.1872 10.7416 14.1872 11.332V26.3639C14.1872 26.979 14.6822 27.471 15.3009 27.471H18.642C19.2607 27.471 19.7557 26.979 19.7557 26.3639V18.4174L23.3691 24.6172C23.5176 24.8878 23.8145 25.06 24.1115 25.06H24.656C24.9777 25.06 25.2747 24.8878 25.4232 24.6172L29.0366 18.4174V26.3639C29.0366 26.979 29.5316 27.471 30.1255 27.471H33.4914C34.1101 27.471 34.5804 26.979 34.5804 26.3639V11.332C34.5804 10.7416 34.1101 10.2495 33.4914 10.2495H29.3583C28.8881 10.2495 28.4426 10.4955 28.2199 10.9138Z" fill="#095AA5"/>
<path d="M44.4015 10.2495H38.1647C37.546 10.2495 37.051 10.7416 37.051 11.332V26.3639C37.051 26.979 37.546 27.471 38.1647 27.471H41.5306C42.1246 27.471 42.6195 26.979 42.6195 26.3639V22.7966H44.4015C48.7573 22.7966 51.7024 20.9022 51.7024 16.6215C51.7024 12.6359 49.178 10.2495 44.4015 10.2495ZM44.4015 18.1714H42.6195V15.0961H44.4015C45.5399 15.0961 46.0844 15.7358 46.0844 16.6215C46.0844 17.5317 45.5399 18.1714 44.4015 18.1714Z" fill="#095AA5"/>
<path d="M64.7726 10.2495C64.1786 10.2495 63.6837 10.7416 63.6837 11.332V19.9182C63.6837 21.4927 62.8422 22.403 61.3325 22.403C59.8476 22.403 59.0061 21.4927 59.0061 19.9182V11.332C59.0061 10.7416 58.5111 10.2495 57.9171 10.2495H54.5513C53.9325 10.2495 53.4376 10.7416 53.4376 11.332V20.5086C53.4376 25.6259 56.6302 27.7662 61.3325 27.7662C66.0596 27.7662 69.2522 25.6259 69.2522 20.5086V11.332C69.2522 10.7416 68.7572 10.2495 68.1385 10.2495H64.7726Z" fill="#095AA5"/>
<path d="M106.73 18.8041C106.73 23.9787 102.535 28.1735 97.3605 28.1735C92.1859 28.1735 87.9911 23.9787 87.9911 18.8041C87.9911 13.6295 92.1859 9.43469 97.3605 9.43469C102.535 9.43469 106.73 13.6295 106.73 18.8041Z" fill="#095AA5"/>
<path fill-rule="evenodd" clip-rule="evenodd" d="M71.6412 10.3016C71.5001 10.3599 71.3845 10.5482 71.3845 10.7203C71.3845 10.8921 72.4011 12.7275 73.6436 14.7985C74.8861 16.8698 75.9027 18.6517 75.9027 18.7583C75.9027 18.8651 74.8243 20.764 73.5064 22.9782C71.6117 26.1616 71.1543 27.0754 71.3206 27.3455C71.4919 27.6236 71.9813 27.6983 73.95 27.7466C76.7328 27.8148 76.748 27.8077 77.7948 25.9171C78.1507 25.2747 78.6648 24.3825 78.9373 23.9348L79.4327 23.1207L80.6261 25.2044C81.2825 26.3503 81.9567 27.4043 82.1245 27.5466C82.3391 27.7285 83.1822 27.7879 84.9654 27.7464C87.2461 27.6931 87.5086 27.6479 87.5743 27.2981C87.6162 27.0746 86.6201 25.1744 85.2347 22.8345L82.822 18.7597L84.7373 15.5631C91.1076 4.49028 91.8767 3.75573 88.335 3.75573C85.383 3.75573 86.5894 2.81128 80.4027 12.7311C79.9044 13.6241 79.4505 14.3534 79.3941 14.3517C79.3376 14.3498 78.8465 13.549 78.3027 12.572C77.7591 11.595 77.1748 10.6531 77.0046 10.4791C76.7618 10.231 76.1763 10.1662 74.2965 10.1792C72.9772 10.1882 71.7825 10.2434 71.6412 10.3016Z" fill="white"/>
</svg>
